<svg xmlns="http://www.w3.org/2000/svg">
    <defs>
        <symbol id="bud-icon" viewBox="0 0 24 24">
            <g>
                <path d="M14.025,14.009l-0.025,-8l3,-0.009l0.025,8l-3,0.009Z" style="fill:#a6e3a1;"/>
                <path d="M9.222,17.536l5.657,-5.657l2.121,2.121l-5.657,5.657l-2.121,-2.121Z" style="fill:#a6e3a1;"/>
            </g>
            <circle cx="11" cy="10" r="2" style="fill:#a6e3a1;"/>
        </symbol>
        <symbol id="sprout-icon" viewBox="0 0 24 24">
            <g>
                <g>
                    <path d="M10.041,11.307l-0.026,-8.298l2.972,-0.009l0.025,8.298l-2.971,0.009Z" style="fill:#a6e3a1;"/>
                    <path d="M5.032,15.054l5.868,-5.867l2.111,2.111l-5.867,5.868l-2.112,-2.112Z" style="fill:#a6e3a1;"/>
                </g>
                <g>
                    <path d="M13.108,17.027l-5.849,5.885l-2.259,-2.245l5.849,-5.885l2.259,2.245Z" style="fill:#a6e3a1;"/>
                    <path d="M18.961,17.994l-7.961,-0l-0,-2.994l7.961,0l0,2.994Z" style="fill:#a6e3a1;"/>
                </g>
                <path d="M17.536,9.603c0.812,0.807 0.816,2.121 0.009,2.933c-0.807,0.812 -2.121,0.816 -2.933,0.009c-0.812,-0.807 -0.816,-2.121 -0.009,-2.933c0.807,-0.812 2.121,-0.816 2.933,-0.009Z" style="fill:#a6e3a1;"/>
            </g>
        </symbol>
        <symbol id="bloom-icon" viewBox="0 0 24 24">
            <g>
                <g>
                    <path d="M8.129,8.019l2.043,-7.718l3.236,0.856l-2.043,7.718l-3.236,-0.856Z" style="fill:#a6e3a1;"/>
                    <path d="M2.81,10.053l6.925,-3.999l1.629,2.822l-6.925,3.998l-1.629,-2.821Z" style="fill:#a6e3a1;"/>
                </g>
                <g>
                    <path d="M10.486,17.322l-7.756,2.104l-0.876,-3.23l7.756,-2.104l0.876,3.23Z" style="fill:#a6e3a1;"/>
                    <path d="M14.885,20.899l-6.903,-3.985l1.629,-2.822l6.903,3.986l-1.629,2.821Z" style="fill:#a6e3a1;"/>
                </g>
                <g>
                    <path d="M17.359,10.643l5.641,5.606l-2.359,2.374l-5.641,-5.606l2.359,-2.374Z" style="fill:#a6e3a1;"/>
                    <rect x="15" y="5" width="3.258" height="8.016" style="fill:#a6e3a1;"/>
                </g>
                <circle cx="12" cy="12.017" r="2" style="fill:#a6e3a1;"/>
            </g>
        </symbol>
    </defs>
</svg>